<?xml version="1.0" encoding="UTF-8" standalone="no"?>
<!DOCTYPE svg PUBLIC "-//W3C//DTD SVG 1.1//EN" "http://www.w3.org/Graphics/SVG/1.1/DTD/svg11.dtd">
<svg width="100%" height="100%" viewBox="0 0 1962 300" version="1.1" xmlns="http://www.w3.org/2000/svg" xmlns:xlink="http://www.w3.org/1999/xlink" xml:space="preserve" xmlns:serif="http://www.serif.com/" style="fill-rule:evenodd;clip-rule:evenodd;stroke-linejoin:round;stroke-miterlimit:2;">
    <g transform="matrix(1,0,0,1,-519,-675)">
        <g transform="matrix(0.83058,0,0,0.254,519,675)">
            <rect id="bialy-F7F7F7-logo-poziom" serif:id="bialy F7F7F7/logo-poziom" x="0" y="0" width="2362.2" height="1181.1" style="fill:none;"/>
            <clipPath id="_clip1">
                <rect id="bialy-F7F7F7-logo-poziom1" serif:id="bialy F7F7F7/logo-poziom" x="0" y="0" width="2362.2" height="1181.1"/>
            </clipPath>
            <g clip-path="url(#_clip1)">
                <g transform="matrix(2.61037,0,0,7.31649,-1259.25,-8050.98)">
                    <g transform="matrix(1.083,0,0,1.083,441.175,347.307)">
                        <g transform="matrix(1.11514,0,0,1.07181,-14470.9,-1574.75)">
                            <path d="M13301,2228.8L13301,2152.62L13282,2152.62L13257,2197.57L13257,2212.15L13288.1,2212.15L13288.1,2228.8L13301,2228.8ZM13270.7,2197.47L13288.1,2166.1L13288.1,2197.47L13270.7,2197.47Z" style="fill:rgb(247,247,247);fill-rule:nonzero;"/>
                        </g>
                        <g transform="matrix(1.11514,0,0,1.07181,-14477.2,-1574.75)">
                            <path d="M13383.9,2152.62L13376.4,2189.07L13373.1,2212.05L13369.8,2189.08L13362.4,2152.62L13346.2,2152.62L13338.6,2189.08L13335.4,2211.83L13332.2,2189.08L13324.6,2152.62L13311.5,2152.62L13327.3,2228.8L13343.2,2228.8L13348.9,2201.27L13353.4,2171L13355.1,2171L13359.6,2201.27L13365.3,2228.8L13381.2,2228.8L13397.1,2152.62L13383.9,2152.62Z" style="fill:rgb(247,247,247);fill-rule:nonzero;"/>
                        </g>
                        <g transform="matrix(1.11514,0,0,1.07181,-14477.7,-1574.75)">
                            <path d="M13421.5,2167.64C13406.4,2167.64 13395.8,2181.02 13395.8,2198.98C13395.8,2216.84 13406.3,2230.11 13421.7,2230.11C13432.3,2230.11 13442.2,2223.91 13445.9,2209.76L13432.6,2209.76C13430.9,2214.55 13426.6,2217.28 13421.7,2217.28C13415,2217.28 13409.6,2212.48 13408.8,2202.89L13446.7,2202.89C13447.9,2183.2 13437.8,2167.64 13421.5,2167.64ZM13421.4,2180.47C13427.6,2180.47 13431.6,2184.94 13433,2191.48L13409.5,2191.48C13411.1,2185.05 13415.1,2180.47 13421.4,2180.47Z" style="fill:rgb(247,247,247);fill-rule:nonzero;"/>
                        </g>
                        <g transform="matrix(1.11514,0,0,1.07181,-14478.3,-1574.75)">
                            <path d="M13480.5,2167.64C13473.6,2167.64 13468.3,2171.56 13464.9,2177.32L13464.9,2145L13452.1,2145L13452.1,2228.8L13464.9,2228.8L13464.9,2220.75C13468.4,2226.41 13473.5,2230.11 13480.5,2230.11C13493.3,2230.11 13503,2217.27 13503,2198.87C13503,2180.36 13493.1,2167.64 13480.5,2167.64ZM13477.5,2215.32C13470.4,2215.32 13464.9,2208.78 13464.9,2198.87C13464.9,2189.07 13470.4,2182.43 13477.5,2182.43C13484.7,2182.43 13490,2189.07 13490,2198.87C13490,2208.78 13484.6,2215.32 13477.5,2215.32Z" style="fill:rgb(247,247,247);fill-rule:nonzero;"/>
                        </g>
                        <g transform="matrix(1.11514,0,0,1.07181,-14477.7,-1574.75)">
                            <path d="M13523,2214.01L13553.6,2167.41L13553.5,2152.62L13508.4,2152.62L13508.4,2167.41L13537.4,2167.41L13506.9,2214.01L13506.9,2228.8L13553.7,2228.8L13553.7,2214.01L13523,2214.01Z" style="fill:rgb(247,247,247);fill-rule:nonzero;"/>
                        </g>
                        <g transform="matrix(1.11514,0,0,1.07181,-14476.6,-1574.75)">
                            <path d="M13581.4,2167.64C13567.2,2167.64 13555.7,2180.8 13555.7,2198.87C13555.7,2216.84 13567,2230.11 13581.4,2230.11C13595.8,2230.11 13607.1,2216.95 13607.1,2198.87C13607.1,2180.8 13595.6,2167.64 13581.4,2167.64ZM13581.4,2182.43C13588.5,2182.43 13594.1,2189.07 13594.1,2198.87C13594.1,2208.78 13588.5,2215.32 13581.4,2215.32C13574.2,2215.32 13568.6,2208.78 13568.6,2198.87C13568.6,2189.07 13574.2,2182.43 13581.4,2182.43Z" style="fill:rgb(247,247,247);fill-rule:nonzero;"/>
                        </g>
                        <g transform="matrix(1.11514,0,0,1.07181,-14476.6,-1574.75)">
                            <path d="M13640.9,2167.64C13634.1,2167.64 13629.2,2171.01 13625.6,2177.1L13625.6,2168.95L13612.8,2168.95L13612.8,2228.8L13625.6,2228.8L13625.6,2197.34C13625.6,2187.55 13629.4,2182.43 13636.7,2182.43C13643.5,2182.43 13645.9,2186.78 13645.9,2194.62L13645.9,2228.8L13658.8,2228.8L13658.8,2191.25C13658.8,2176.56 13652,2167.64 13640.9,2167.64Z" style="fill:rgb(247,247,247);fill-rule:nonzero;"/>
                        </g>
                        <g transform="matrix(1.11514,0,0,1.07181,-14476.6,-1574.75)">
                            <path d="M13689.8,2167.64C13674.7,2167.64 13664.1,2181.02 13664.1,2198.98C13664.1,2216.84 13674.6,2230.11 13690.1,2230.11C13700.6,2230.11 13710.5,2223.91 13714.2,2209.76L13700.9,2209.76C13699.2,2214.55 13694.9,2217.28 13690,2217.28C13683.3,2217.28 13677.9,2212.48 13677.1,2202.89L13715,2202.89C13716.2,2183.2 13706.1,2167.64 13689.8,2167.64ZM13689.7,2180.47C13695.9,2180.47 13699.9,2184.94 13701.4,2191.48L13677.8,2191.48C13679.4,2185.05 13683.4,2180.47 13689.7,2180.47Z" style="fill:rgb(247,247,247);fill-rule:nonzero;"/>
                        </g>
                        <g transform="matrix(1.11514,0,0,1.07181,-14476.6,-1574.75)">
                            <path d="M13743.1,2230.11C13755.3,2230.11 13765.1,2223.58 13765.1,2210.2C13765.1,2198.22 13757.2,2194.95 13743.1,2191.03C13736,2189.07 13733.7,2188.53 13733.7,2185.7C13733.7,2182.43 13736.9,2180.69 13742,2180.69C13747.9,2180.69 13750.6,2182.98 13751.6,2186.79L13764.6,2186.79C13762.9,2175.69 13756.1,2167.64 13742.4,2167.64C13729.4,2167.64 13720.8,2174.93 13720.8,2187.55C13720.8,2197.89 13726.6,2201.7 13740.5,2205.73C13748,2207.91 13751.8,2208.24 13751.8,2212.27C13751.8,2215.53 13749.2,2217.17 13743.5,2217.17C13735.5,2217.17 13732.6,2213.9 13731.6,2209.11L13718.6,2209.11C13720.4,2222.28 13730,2230.11 13743.1,2230.11Z" style="fill:rgb(247,247,247);fill-rule:nonzero;"/>
                        </g>
                    </g>
                    <g transform="matrix(1,0,0,1,-597.462,-789.376)">
                        <g transform="matrix(0.571429,0,0,0.666667,-6479.19,787.402)">
                            <path d="M13295.9,1674.01L13375.8,1845.28C13384,1863 13376.3,1884.1 13358.6,1892.37C13340.9,1900.63 13319.8,1892.95 13311.5,1875.23L13231.7,1703.95C13223.4,1686.23 13231.1,1665.13 13248.8,1656.87C13266.5,1648.6 13287.6,1656.28 13295.9,1674.01Z" style="fill:rgb(247,247,247);"/>
                        </g>
                        <g transform="matrix(0.571429,0,0,0.666667,-6479.19,787.402)">
                            <path d="M13424.9,1885.31C13422,1882.47 13419.6,1879.08 13417.8,1875.23L13338,1703.95C13329.7,1686.23 13337.4,1665.13 13355.1,1656.87C13372.8,1648.6 13393.9,1656.28 13402.2,1674.01L13449.9,1776.41L13497.7,1674.01C13506,1656.28 13527.1,1648.6 13544.8,1656.87C13562.5,1665.13 13570.2,1686.23 13561.9,1703.95L13482.1,1875.23C13473.8,1892.95 13452.7,1900.63 13435,1892.37C13431.1,1890.57 13427.7,1888.16 13424.9,1885.31Z" style="fill:rgb(247,247,247);"/>
                        </g>
                        <g transform="matrix(0.571429,0,0,0.666667,-6479.19,787.402)">
                            <circle cx="13565.5" cy="1854.34" r="41.339" style="fill:rgb(247,247,247);"/>
                        </g>
                    </g>
                </g>
            </g>
        </g>
    </g>
</svg>
